<mxfile host="app.diagrams.net" modified="2022-04-08T23:07:55.408Z" agent="5.0 (X11)" etag="1lnSC4hBssVXmHqrdpon" version="17.4.1" type="github">
  <diagram id="R2lEEEUBdFMjLlhIrx00" name="Page-1">
    <mxGraphModel dx="875" dy="561" grid="1" gridSize="10" guides="1" tooltips="1" connect="1" arrows="1" fold="1" page="1" pageScale="1" pageWidth="850" pageHeight="1100" math="0" shadow="0" extFonts="Permanent Marker^https://fonts.googleapis.com/css?family=Permanent+Marker">
      <root>
        <mxCell id="0" />
        <mxCell id="1" parent="0" />
        <mxCell id="XgKvQ71o77jp8OaDTsso-32" value="Aluno" style="whiteSpace=wrap;html=1;align=center;" vertex="1" parent="1">
          <mxGeometry x="110" y="600" width="100" height="40" as="geometry" />
        </mxCell>
        <mxCell id="XgKvQ71o77jp8OaDTsso-33" value="&lt;div&gt;Matricula&lt;/div&gt;" style="ellipse;whiteSpace=wrap;html=1;align=center;fillColor=#7EA6E0;" vertex="1" parent="1">
          <mxGeometry x="10" y="570" width="100" height="40" as="geometry" />
        </mxCell>
        <mxCell id="XgKvQ71o77jp8OaDTsso-35" value="Nome" style="ellipse;whiteSpace=wrap;html=1;align=center;" vertex="1" parent="1">
          <mxGeometry x="100" y="520" width="100" height="40" as="geometry" />
        </mxCell>
        <mxCell id="XgKvQ71o77jp8OaDTsso-36" value="Data Nascimento" style="ellipse;whiteSpace=wrap;html=1;align=center;" vertex="1" parent="1">
          <mxGeometry x="210" y="530" width="130" height="60" as="geometry" />
        </mxCell>
        <mxCell id="XgKvQ71o77jp8OaDTsso-37" value="" style="endArrow=none;html=1;rounded=0;exitX=1;exitY=0.5;exitDx=0;exitDy=0;entryX=0.25;entryY=0;entryDx=0;entryDy=0;" edge="1" parent="1" source="XgKvQ71o77jp8OaDTsso-33" target="XgKvQ71o77jp8OaDTsso-32">
          <mxGeometry relative="1" as="geometry">
            <mxPoint x="120" y="579" as="sourcePoint" />
            <mxPoint x="280" y="579" as="targetPoint" />
          </mxGeometry>
        </mxCell>
        <mxCell id="XgKvQ71o77jp8OaDTsso-39" value="" style="endArrow=none;html=1;rounded=0;exitX=0.5;exitY=1;exitDx=0;exitDy=0;entryX=0.5;entryY=0;entryDx=0;entryDy=0;" edge="1" parent="1" source="XgKvQ71o77jp8OaDTsso-35" target="XgKvQ71o77jp8OaDTsso-32">
          <mxGeometry relative="1" as="geometry">
            <mxPoint x="130" y="580" as="sourcePoint" />
            <mxPoint x="155" y="620" as="targetPoint" />
          </mxGeometry>
        </mxCell>
        <mxCell id="XgKvQ71o77jp8OaDTsso-40" value="" style="endArrow=none;html=1;rounded=0;exitX=0;exitY=1;exitDx=0;exitDy=0;entryX=0.75;entryY=0;entryDx=0;entryDy=0;" edge="1" parent="1" source="XgKvQ71o77jp8OaDTsso-36" target="XgKvQ71o77jp8OaDTsso-32">
          <mxGeometry relative="1" as="geometry">
            <mxPoint x="160" y="550" as="sourcePoint" />
            <mxPoint x="180" y="620" as="targetPoint" />
          </mxGeometry>
        </mxCell>
        <mxCell id="XgKvQ71o77jp8OaDTsso-41" value="" style="endArrow=none;html=1;rounded=0;exitX=1;exitY=0.5;exitDx=0;exitDy=0;" edge="1" parent="1" source="XgKvQ71o77jp8OaDTsso-32" target="XgKvQ71o77jp8OaDTsso-42">
          <mxGeometry relative="1" as="geometry">
            <mxPoint x="170" y="560" as="sourcePoint" />
            <mxPoint x="360" y="630" as="targetPoint" />
          </mxGeometry>
        </mxCell>
        <mxCell id="XgKvQ71o77jp8OaDTsso-42" value="Cursar" style="shape=rhombus;perimeter=rhombusPerimeter;whiteSpace=wrap;html=1;align=center;" vertex="1" parent="1">
          <mxGeometry x="270" y="620" width="120" height="60" as="geometry" />
        </mxCell>
        <mxCell id="XgKvQ71o77jp8OaDTsso-43" value="" style="endArrow=none;html=1;rounded=0;exitX=1;exitY=0.5;exitDx=0;exitDy=0;" edge="1" parent="1" source="XgKvQ71o77jp8OaDTsso-42" target="XgKvQ71o77jp8OaDTsso-44">
          <mxGeometry relative="1" as="geometry">
            <mxPoint x="180" y="570" as="sourcePoint" />
            <mxPoint x="450" y="640" as="targetPoint" />
          </mxGeometry>
        </mxCell>
        <mxCell id="XgKvQ71o77jp8OaDTsso-44" value="Diciplina" style="whiteSpace=wrap;html=1;align=center;" vertex="1" parent="1">
          <mxGeometry x="490" y="620" width="100" height="40" as="geometry" />
        </mxCell>
        <mxCell id="XgKvQ71o77jp8OaDTsso-45" value="Cod. Diciplina" style="ellipse;whiteSpace=wrap;html=1;align=center;fillColor=#7EA6E0;" vertex="1" parent="1">
          <mxGeometry x="410" y="460" width="100" height="40" as="geometry" />
        </mxCell>
        <mxCell id="XgKvQ71o77jp8OaDTsso-46" value="" style="endArrow=none;html=1;rounded=0;exitX=0.5;exitY=1;exitDx=0;exitDy=0;entryX=0.17;entryY=-0.05;entryDx=0;entryDy=0;entryPerimeter=0;" edge="1" parent="1" source="XgKvQ71o77jp8OaDTsso-45" target="XgKvQ71o77jp8OaDTsso-44">
          <mxGeometry relative="1" as="geometry">
            <mxPoint x="340" y="490" as="sourcePoint" />
            <mxPoint x="500" y="490" as="targetPoint" />
          </mxGeometry>
        </mxCell>
        <mxCell id="XgKvQ71o77jp8OaDTsso-47" value="" style="endArrow=none;html=1;rounded=0;entryX=0.75;entryY=0;entryDx=0;entryDy=0;exitX=0.5;exitY=1;exitDx=0;exitDy=0;" edge="1" parent="1" source="XgKvQ71o77jp8OaDTsso-49" target="XgKvQ71o77jp8OaDTsso-44">
          <mxGeometry relative="1" as="geometry">
            <mxPoint x="510" y="520" as="sourcePoint" />
            <mxPoint x="500" y="490" as="targetPoint" />
          </mxGeometry>
        </mxCell>
        <mxCell id="XgKvQ71o77jp8OaDTsso-49" value="Nome" style="ellipse;whiteSpace=wrap;html=1;align=center;" vertex="1" parent="1">
          <mxGeometry x="580" y="470" width="100" height="40" as="geometry" />
        </mxCell>
        <mxCell id="XgKvQ71o77jp8OaDTsso-50" value="Professor" style="whiteSpace=wrap;html=1;align=center;" vertex="1" parent="1">
          <mxGeometry x="160" y="820" width="100" height="40" as="geometry" />
        </mxCell>
        <mxCell id="XgKvQ71o77jp8OaDTsso-51" value="" style="endArrow=none;html=1;rounded=0;entryX=0.25;entryY=0;entryDx=0;entryDy=0;exitX=1;exitY=1;exitDx=0;exitDy=0;" edge="1" parent="1" source="XgKvQ71o77jp8OaDTsso-52" target="XgKvQ71o77jp8OaDTsso-50">
          <mxGeometry relative="1" as="geometry">
            <mxPoint x="130" y="720" as="sourcePoint" />
            <mxPoint x="500" y="650" as="targetPoint" />
          </mxGeometry>
        </mxCell>
        <mxCell id="XgKvQ71o77jp8OaDTsso-52" value="Nome" style="ellipse;whiteSpace=wrap;html=1;align=center;" vertex="1" parent="1">
          <mxGeometry x="20" y="750" width="100" height="40" as="geometry" />
        </mxCell>
        <mxCell id="XgKvQ71o77jp8OaDTsso-53" value="Diciplina" style="ellipse;whiteSpace=wrap;html=1;" vertex="1" parent="1">
          <mxGeometry x="120" y="710" width="100" height="40" as="geometry" />
        </mxCell>
        <mxCell id="XgKvQ71o77jp8OaDTsso-56" value="" style="endArrow=none;html=1;rounded=0;exitX=0.75;exitY=0;exitDx=0;exitDy=0;entryX=0.5;entryY=1;entryDx=0;entryDy=0;" edge="1" parent="1" source="XgKvQ71o77jp8OaDTsso-50" target="XgKvQ71o77jp8OaDTsso-53">
          <mxGeometry relative="1" as="geometry">
            <mxPoint x="340" y="650" as="sourcePoint" />
            <mxPoint x="500" y="650" as="targetPoint" />
          </mxGeometry>
        </mxCell>
        <mxCell id="XgKvQ71o77jp8OaDTsso-57" value="Ministra" style="shape=rhombus;perimeter=rhombusPerimeter;whiteSpace=wrap;html=1;align=center;" vertex="1" parent="1">
          <mxGeometry x="425" y="800" width="120" height="60" as="geometry" />
        </mxCell>
        <mxCell id="XgKvQ71o77jp8OaDTsso-58" value="" style="endArrow=none;html=1;rounded=0;exitX=1;exitY=0.5;exitDx=0;exitDy=0;entryX=0;entryY=0.5;entryDx=0;entryDy=0;" edge="1" parent="1" source="XgKvQ71o77jp8OaDTsso-50" target="XgKvQ71o77jp8OaDTsso-57">
          <mxGeometry width="50" height="50" relative="1" as="geometry">
            <mxPoint x="400" y="680" as="sourcePoint" />
            <mxPoint x="450" y="630" as="targetPoint" />
          </mxGeometry>
        </mxCell>
        <mxCell id="XgKvQ71o77jp8OaDTsso-59" value="" style="endArrow=none;html=1;rounded=0;exitX=0.5;exitY=0;exitDx=0;exitDy=0;entryX=0.5;entryY=1;entryDx=0;entryDy=0;" edge="1" parent="1" source="XgKvQ71o77jp8OaDTsso-57" target="XgKvQ71o77jp8OaDTsso-44">
          <mxGeometry width="50" height="50" relative="1" as="geometry">
            <mxPoint x="400" y="680" as="sourcePoint" />
            <mxPoint x="450" y="630" as="targetPoint" />
          </mxGeometry>
        </mxCell>
      </root>
    </mxGraphModel>
  </diagram>
</mxfile>
